<?xml version="1.0" encoding="utf-8"?>
<!-- Generator: Adobe Illustrator 21.1.0, SVG Export Plug-In . SVG Version: 6.00 Build 0)  -->
<svg version="1.1" xmlns="http://www.w3.org/2000/svg" xmlns:xlink="http://www.w3.org/1999/xlink" x="0px" y="0px"
	 viewBox="0 0 182 25" width="182" height="25" style="enable-background:new 0 0 182 25;" xml:space="preserve">
<style type="text/css">
	.st0{fill:#F0EEEA;}
	.st1{fill:#ED0006;}
	.st2{fill:#F9A000;}
	.st3{fill:#FF5D00;}
	.st4{stroke:#000000;stroke-width:0.2466;}
	.st5{fill:#FFFFFF;}
	.st6{fill:none;stroke:#BFBFBF;stroke-width:0.1;}
	.st7{fill:#5457BB;}
	.st8{fill:#4144B3;}
	.st9{fill:#E8A21D;}
	.st10{fill:#E59703;}
	.st11{fill:#5EC1EC;}
	.st12{fill:#4CBAEA;}
	.st13{fill:#FFFFFF;stroke:#FFFFFF;stroke-width:0.2263;}
	.st14{fill:#E6E6E6;stroke:#8A8A8A;}
	.st15{fill:#E6E6E6;}
	.st16{fill:#8A8A8A;}
	.st17{fill:#DCDFE6;}
	.st18{fill:#FEFEFE;}
	.st19{fill:#B0B6C6;}
	.st20{clip-path:url(#SVGID_2_);fill:#FFFFFF;}
	.st21{clip-path:url(#SVGID_4_);fill:#EF7D00;}
	.st22{fill:#EF7D00;}
	.st23{fill:url(#SVGID_5_);}
	.st24{fill:#05171D;}
	.st25{fill:#1D1D1B;}
</style>
<g id="svg4618" xmlns:cc="http://creativecommons.org/ns#" xmlns:dc="http://purl.org/dc/elements/1.1/" xmlns:rdf="http://www.w3.org/1999/02/22-rdf-syntax-ns#" xmlns:svg="http://www.w3.org/2000/svg">
	<path id="rect4628" class="st0" d="M35.2,0.7h31.5c0.5,0,0.8,0.3,0.8,0.8v21.9c0,0.5-0.3,0.8-0.8,0.8H35.2c-0.5,0-0.8-0.3-0.8-0.8
		V1.5C34.4,1.2,34.7,0.7,35.2,0.7z"/>
	<ellipse id="path5170" class="st1" cx="46" cy="10.6" rx="8.3" ry="8.5"/>
	<ellipse id="ellipse5172" class="st2" cx="56" cy="10.6" rx="8.3" ry="8.5"/>
	<path id="ellipse5174" class="st3" d="M51.1,3.8C49,5.5,47.7,8,47.7,10.6s1.3,5.1,3.4,6.8c2.1-1.7,3.4-4.2,3.4-6.8
		C54.3,7.9,53.2,5.4,51.1,3.8z"/>
	<g id="text5179" transform="matrix(0.23676599,0,0,0.21010208,21.530759,8.547391)">
		<path id="path5184" class="st4" d="M77.2,67.1h1.3v-5.8c0-2,1-3.2,2.6-3.2c0.8,0,1.6,0.3,2.1,0.8s0.7,1.2,0.7,2.3V67h1.3v-5.8
			c0-1,0.2-1.7,0.5-2C86.2,58.5,87,58,88,58c0.8,0,1.6,0.3,2.1,1c0.3,0.5,0.5,1.3,0.5,2.3v5.8h1.3v-6c0-1.3-0.2-2.2-0.8-2.8
			C90.5,57.7,89.3,57,88,57c-1.5,0-2.6,0.7-3.4,2c-0.8-1.3-1.8-2-3.3-2c-1.3,0-2,0.3-2.8,1.3v-1.2h-1.3
			C77.2,57.1,77.2,67.1,77.2,67.1z"/>
		<path id="path5186" class="st4" d="M104.1,57.2h-1.3V59c-1-1.3-2.1-2-3.9-2c-2.9,0-5.2,2.3-5.2,5.3s2.3,5.1,5.2,5.1
			c1.6,0,2.8-0.5,3.8-2v1.8h1.3L104.1,57.2L104.1,57.2z M98.8,58.2c2.1,0,3.9,1.7,3.9,4c0,2.3-1.6,4-3.8,4c-2.3,0-3.9-1.8-3.9-4
			C95,60,96.7,58.2,98.8,58.2z"/>
		<path id="path5188" class="st4" d="M105.5,64.3c0,2,1.3,3.2,3.1,3.2c1.8,0,2.9-1.3,2.9-3.2c0-1.2-0.5-2-1.6-2.5
			c-1.5-0.7-1.6-0.7-1.8-0.8c-0.7-0.3-0.8-0.7-0.8-1.3c0-0.8,0.7-1.5,1.5-1.5s1.3,0.5,1.5,1.5h1.3c0-1.7-1.1-2.7-2.8-2.7
			s-2.8,1.2-2.8,2.8c0,0.7,0.3,1.3,0.8,1.8c0.5,0.3,0.5,0.3,1.8,1c0.7,0.2,1,0.5,1.3,0.7c0.3,0.3,0.7,0.8,0.7,1.3
			c0,1-0.7,1.7-1.6,1.7c-1.1,0-1.8-0.7-1.8-2H105.5z"/>
		<path id="path5190" class="st4" d="M117.8,67.1V66c0,0-2,0.5-2-0.3c-0.3-1.8,0-7.5,0-7.5h2.3V57h-2.3v-3.5h-1.3V57h-2.1v1.2h2.1
			c0,0-0.2,5,0,7.3C114.7,68.1,117.8,67.1,117.8,67.1z"/>
		<path id="path5192" class="st4" d="M129.3,62.7c0-1.3-0.2-2.2-0.7-3.2c-0.8-1.7-2.6-2.7-4.4-2.7c-2.8,0-5.1,2.3-5.1,5.1
			c0,3,2.3,5.3,5.2,5.3c1.3,0,2.5-0.5,3.3-1.3c0.7-0.7,1.1-1.3,1.5-2.2h-1.3c-0.5,1.3-2,2.3-3.4,2.3c-2,0-3.8-1.5-3.8-3.5
			L129.3,62.7z M120.4,61.5c0.3-2,1.8-3.2,3.8-3.2s3.4,1.2,3.8,3.2H120.4z"/>
		<path id="path5194" class="st4" d="M131.2,67.1h1.3v-5.8c0-1.8,1-2.8,2.8-3V57c-1.5,0-2.3,0.5-2.8,1.7v-1.5h-1.3V67.1z"/>
		<path id="path5196" class="st4" d="M144.8,64.3c-1,1.3-2,2-3.4,2c-2.3,0-3.9-1.8-3.9-4c0-2.3,1.6-4,3.9-4c1.5,0,2.6,0.7,3.4,2h1.5
			c-0.8-2-2.6-3.3-4.9-3.3c-2.9,0-5.2,2.3-5.2,5.1c0,3,2.3,5.3,5.4,5.3c1.1,0,2.3-0.3,3.3-1.2c0.7-0.5,1-1,1.5-2
			C146.3,64.3,144.8,64.3,144.8,64.3z"/>
		<path id="path5198" class="st4" d="M158.2,57.2h-1.3V59c-1-1.3-2.1-2-3.9-2c-2.9,0-5.2,2.3-5.2,5.3s2.3,5.1,5.2,5.1
			c1.6,0,2.8-0.5,3.8-2v1.8h1.3L158.2,57.2L158.2,57.2z M153,58.2c2.1,0,3.9,1.7,3.9,4c0,2.3-1.6,4-3.8,4c-2.3,0-3.9-1.8-3.9-4
			C149.2,60,150.9,58.2,153,58.2z"/>
		<path id="path5200" class="st4" d="M160.5,67.1h1.3v-5.8c0-1.8,1-2.8,2.8-3V57c-1.5,0-2.3,0.5-2.8,1.7v-1.5h-1.3V67.1z"/>
		<path id="path5202" class="st4" d="M176.1,53.7h-1.3v5.1c-1-1.2-2.3-1.8-3.9-1.8c-2.9,0-5.2,2.3-5.2,5.3s2.3,5.1,5.4,5.1
			c1.6,0,2.8-0.7,3.8-2v1.8h1.3V53.7H176.1z M170.7,58.2c2.1,0,3.9,1.8,3.9,4c0,2.2-1.8,4-3.8,4c-2.3,0-3.9-1.8-3.9-4
			C166.9,60,168.6,58.2,170.7,58.2z"/>
	</g>
	<g id="g5225" transform="matrix(0.32166524,0,0,0.32166524,0.11745367,0.19774451)">
		<rect id="rect4361" x="0.9" y="20.9" class="st5" width="103.3" height="34.2"/>
		<path id="rect4273" class="st6" d="M5.5,1.5h94.4c2.5,0,4.4,2,4.4,4.5v64c0,2.5-2,4.5-4.4,4.5H5.5c-2.5,0-4.4-2-4.4-4.5V6.1
			C1,3.6,3,1.5,5.5,1.5z"/>
		<path id="rect3469" class="st7" d="M5.5,1.5C3,1.5,1,3.5,1,6v14.8h103.5V6.1c0-2.5-2-4.5-4.4-4.5C99.9,1.5,5.5,1.5,5.5,1.5z"/>
		<path id="path4344" class="st8" d="M104.3,8.1l-18,12.8h18C104.3,20.9,104.3,8.1,104.3,8.1z"/>
		<path id="path4396" class="st9" d="M5.5,74.4c-2.5,0-4.4-2-4.4-4.5V55.1h103.5v14.8c0,2.5-2,4.5-4.4,4.5
			C99.9,74.4,5.5,74.4,5.5,74.4z"/>
		<path id="path4346" class="st10" d="M104.3,55H39.2L11,74.6h91.8c0.8,0,1.5-0.7,1.5-1.5C104.5,71.9,104.3,55,104.3,55z"/>
		<path id="path4394" class="st7" d="M55.5,47.5c-1.3-0.2-2.8-0.5-3.8-0.8l-0.3-0.2l0.3-1.8c0.2-1,0.3-2,0.5-2.2v-0.3l0.5,0.3
			c1.5,0.7,2.8,1,4.4,0.8c1,0,1.3-0.2,2-0.3c0.7-0.3,1-0.8,1-1.5c0-0.3-0.2-0.7-0.5-1s-0.8-0.7-2.1-1.3c-1.3-0.6-2.1-1.2-2.6-1.8
			c-0.5-0.5-0.8-1-1.1-1.5c-0.5-1-0.7-2.3-0.2-3.7c0.5-1.5,1.6-2.7,3.1-3.5c2.1-1.2,5.1-1.3,7.9-0.7c0.5,0.2,1.3,0.5,1.5,0.5l-0.8,4
			c0,0-0.3,0-0.5-0.2c-1-0.5-2.3-0.7-3.3-0.7c-1.1,0-2,0.2-2.5,0.7c-0.7,0.7-0.7,1.3,0,1.8c0.3,0.3,0.7,0.5,1.8,1.2s1.5,0.8,2,1.2
			c1.3,1,2.1,1.8,2.5,3.2c0.2,0.5,0.2,1.7,0,2.2c-0.7,2.8-2.8,4.7-6.4,5.1C58,47.5,56.4,47.5,55.5,47.5L55.5,47.5z M30.3,39.8
			c-1-4-2-7.6-2-8c-0.2-0.7-0.3-1-0.7-1.2c-0.7-0.5-2.5-1.3-4.6-1.8l-0.7-0.2v-0.2c0,0,0-0.2,0-0.3V28h4.1c4.6,0,4.6,0,5.1,0.2
			s0.8,0.7,1.1,1.3c0,0.2,0.5,2.7,1.1,5.8c0.7,3.2,1,5.5,1,5.5s0.7-1.3,2-4.7c1-2.7,2.1-5.5,2.5-6.5L40,28h2.5c1.8,0,2.5,0,2.5,0
			s-7.5,18.4-7.7,18.8V47h-2.6H32C32.3,47.3,30.3,39.8,30.3,39.8z M43.3,47.2l3.9-18.9c0,0,1.1,0,2.5,0c2.3,0,2.5,0,2.5,0
			s-1,4.3-2,9.5c-1.1,5.1-2,9.3-2,9.5c0,0-0.2,0-2.5,0C44.3,47.3,43.3,47.2,43.3,47.2z M65,47.2c0,0,7.2-17.6,7.4-17.8
			c0.2-0.3,0.7-0.8,1-0.8c0.5-0.2,0.7-0.3,2.9-0.3c1.6,0,2.1,0,2.1,0s0.8,4.3,2,9.3c1,5.1,2,9.3,2,9.5v0.2h-2.3h-2.3l-0.2-1
			c-0.2-0.7-0.3-1.3-0.3-1.5v-0.3h-3.1h-3.1L70.6,46l-0.5,1.3h-2.5C66.2,47.2,65,47.2,65,47.2L65,47.2z M76.5,40.5
			c0-0.3-1.5-7-1.5-7l0,0l-2.5,7c0,0,1,0,2,0C76.3,40.5,76.5,40.5,76.5,40.5L76.5,40.5z"/>
	</g>
	<g id="g5594" transform="matrix(0.98471929,0,0,0.97838439,0.08513386,0.12746712)">
		<path id="rect5270" class="st11" d="M71.7,0.5h29.1c1.3,0,2.3,1,2.3,2.3v19.4c0,1.3-1,2.3-2.3,2.3H71.7c-1.3,0-2.3-1-2.3-2.3V2.9
			C69.5,1.5,70.4,0.5,71.7,0.5z"/>
		<path id="rect5272" class="st12" d="M103.1,3.5l-31,21.1h28.8c1.3,0,2.3-1,2.3-2.3C103.1,22.3,103.1,3.5,103.1,3.5z"/>
	</g>
	<g id="text5280" transform="matrix(0.92271103,0,0,0.84621193,-0.67922325,-11.144354)">
		<path id="path5285" class="st13" d="M83.8,25.5l-1.1,3.2H85L83.8,25.5z M83.3,24.7h1l2.3,6.3h-0.8l-0.5-1.7h-2.8L82,31h-0.8
			C81,31,83.3,24.7,83.3,24.7z"/>
		<path id="path5287" class="st13" d="M87.6,24.7h1.3l1.6,5.5l1.6-5.5h1.3V31h-0.8v-5.5L91,31h-0.8l-1.6-5.5V31h-0.8L87.6,24.7z"/>
		<path id="path5289" class="st13" d="M94.8,24.7h3.9v0.7h-3.1v1.8h2.9v0.7h-2.9v2.3h3.1v0.7h-3.9V24.7z"/>
		<path id="path5291" class="st13" d="M99.9,24.7h0.8l1.5,2.3l1.5-2.3h0.8l-2,3l2.1,3.3h-0.8l-1.8-2.7l-1.8,2.7h-0.8l2.1-3.3
			C101.8,27.7,99.9,24.7,99.9,24.7z"/>
	</g>
	<g>
		<path id="path5484" class="st14" d="M173.8,3.6c-3.1,0-5.7,2.7-5.7,5.8l0,0c-0.5,0-0.8,0.3-0.8,0.8v10.3c0,0.5,0.3,0.8,0.8,0.8
			h11.5c0.5,0,0.8-0.3,0.8-0.8V10.1c0-0.5-0.3-0.8-0.8-0.8l0,0C179.5,6.3,176.9,3.6,173.8,3.6L173.8,3.6z M173.8,4.9
			c2.5,0,4.4,2,4.4,4.5h-8.8C169.3,6.9,171.3,4.9,173.8,4.9z"/>
		<path id="path5472" class="st15" d="M173.8,3.6c-3.1,0-5.7,2.7-5.7,5.8l0,0c-0.5,0-0.8,0.3-0.8,0.8v10.3c0,0.5,0.3,0.8,0.8,0.8
			h11.5c0.5,0,0.8-0.3,0.8-0.8V10.1c0-0.5-0.3-0.8-0.8-0.8l0,0C179.5,6.3,176.9,3.6,173.8,3.6L173.8,3.6z M173.8,4.9
			c2.5,0,4.4,2,4.4,4.5h-8.8C169.3,6.9,171.3,4.9,173.8,4.9z"/>
		<g id="g5358" transform="matrix(1.3395916,0,0,1.3395916,-41.912604,-3.4305702)">
			<ellipse id="path5353" class="st16" cx="161" cy="12.8" rx="1.1" ry="1.1"/>
			<path id="rect5355" class="st16" d="M161,13l1,2.5h-2L161,13z"/>
		</g>
	</g>
	<g id="g5318" transform="translate(-20.581432,-0.25)">
		<path id="rect5302" class="st17" d="M159.3,2.9h24.9c1.3,0,2.3,1,2.3,2.3v14.5c0,1.3-1,2.3-2.3,2.3h-24.9c-1.3,0-2.3-1-2.3-2.3
			V5.1C157.1,3.9,158,2.9,159.3,2.9z"/>
		<path id="rect5304" class="st18" d="M160.2,7.3h6.4c0.3,0,0.7,0.3,0.7,0.7v4.3c0,0.3-0.3,0.7-0.7,0.7h-6.4c-0.3,0-0.7-0.3-0.7-0.7
			V7.9C159.5,7.6,159.8,7.3,160.2,7.3z"/>
		<path id="rect5306" class="st19" d="M159.7,15.7h4.6c0.2,0,0.2,0.2,0.2,0.2v1.5c0,0.2-0.2,0.2-0.2,0.2h-4.6
			c-0.2,0-0.2-0.2-0.2-0.2v-1.3C159.5,15.9,159.5,15.7,159.7,15.7z"/>
		<path id="rect5308" class="st19" d="M166.2,15.7h4.6c0.2,0,0.2,0.2,0.2,0.2v1.5c0,0.2-0.2,0.2-0.2,0.2h-4.6
			c-0.2,0-0.2-0.2-0.2-0.2v-1.3C166.1,15.9,166.1,15.7,166.2,15.7z"/>
		<path id="rect5310" class="st19" d="M172.8,15.7h4.6c0.2,0,0.2,0.2,0.2,0.2v1.5c0,0.2-0.2,0.2-0.2,0.2h-4.6
			c-0.2,0-0.2-0.2-0.2-0.2v-1.3C172.6,15.9,172.6,15.7,172.8,15.7z"/>
		<path id="rect5312" class="st19" d="M179.3,15.7h4.6c0.2,0,0.2,0.2,0.2,0.2v1.5c0,0.2-0.2,0.2-0.2,0.2h-4.6
			c-0.2,0-0.2-0.2-0.2-0.2v-1.3C179.2,15.9,179.2,15.7,179.3,15.7z"/>
	</g>
	<path id="path5470" class="st19" d="M0,0.3"/>
</g>
<g id="Слой_2">
	<g>
		<g>
			<g>
				<g>
					<defs>
						<path id="SVGID_1_" d="M133.6,24h-29.1c-1,0-1.9-1-1.9-2.2V2.9c0-1.2,0.9-2.2,1.9-2.2h29.2c1,0,1.9,1,1.9,2.2v18.9
							C135.6,23,134.7,24,133.6,24z"/>
					</defs>
					<clipPath id="SVGID_2_">
						<use xlink:href="#SVGID_1_"  style="overflow:visible;"/>
					</clipPath>
					<rect x="102.6" y="0.8" class="st20" width="33" height="23.3"/>
				</g>
			</g>
			<g>
				<g>
					<defs>
						<path id="SVGID_3_" d="M133.6,24h-29.1c-1,0-1.9-1-1.9-2.2V2.9c0-1.2,0.9-2.2,1.9-2.2h29.2c1,0,1.9,1,1.9,2.2v18.9
							C135.6,23,134.7,24,133.6,24z"/>
					</defs>
					<clipPath id="SVGID_4_">
						<use xlink:href="#SVGID_3_"  style="overflow:visible;"/>
					</clipPath>
					<path class="st21" d="M135.4,13.7c0,0-9,7-25.5,10.1h25.5V13.7z"/>
				</g>
			</g>
		</g>
		<path class="st22" d="M133.8,24.2h-29.4c-1,0-1.9-1-1.9-2.2V2.8c0-1.2,0.9-2.2,1.9-2.2h29.2c1,0,1.9,1,1.9,2.2v19.1
			C135.7,23.2,134.8,24.2,133.8,24.2z M104.4,1c-0.9,0-1.6,0.8-1.6,1.8v19.1c0,1,0.7,1.8,1.6,1.8h29.2c0.9,0,1.6-0.8,1.6-1.8V2.8
			c0-1-0.7-1.8-1.6-1.8H104.4z"/>
	</g>

		<radialGradient id="SVGID_5_" cx="-6.0828" cy="-19.5203" r="1.6147" gradientTransform="matrix(1.498 0 0 1.6612 128.973 41.7021)" gradientUnits="userSpaceOnUse">
		<stop  offset="5.618000e-03" style="stop-color:#FFF2E8"/>
		<stop  offset="9.609879e-02" style="stop-color:#FEEDDF"/>
		<stop  offset="0.2438" style="stop-color:#FDE1C7"/>
		<stop  offset="0.4303" style="stop-color:#FACD9F"/>
		<stop  offset="0.6484" style="stop-color:#F6B168"/>
		<stop  offset="0.8901" style="stop-color:#F08E22"/>
		<stop  offset="1" style="stop-color:#EE7D00"/>
	</radialGradient>
	<path class="st23" d="M119.8,6.6c-1.3,0-2.4,1.2-2.4,2.7s1,2.7,2.4,2.7c1.3,0,2.4-1.2,2.4-2.7C122.2,7.8,121.2,6.6,119.8,6.6z"/>
	<path class="st24" d="M105.9,6.8h-1.3v5.1h1.3c0.7,0,1.2-0.2,1.6-0.7s0.9-1.2,0.9-2C108.5,7.8,107.4,6.8,105.9,6.8z M107,10.6
		c-0.3,0.3-0.6,0.3-1.2,0.3h-0.3V7.6h0.3c0.6,0,0.9,0.2,1.2,0.3c0.3,0.3,0.6,0.8,0.6,1.3S107.3,10.3,107,10.6z"/>
	<rect x="108.9" y="6.8" class="st24" width="0.9" height="5.1"/>
	<path class="st24" d="M111.9,8.6c-0.6-0.2-0.7-0.3-0.7-0.7c0-0.3,0.3-0.5,0.6-0.5c0.3,0,0.4,0.2,0.7,0.3l0.4-0.7
		c-0.4-0.3-0.9-0.5-1.3-0.5c-0.7,0-1.5,0.7-1.5,1.5c0,0.7,0.3,1,1.2,1.3c0.3,0.2,0.6,0.2,0.6,0.3c0.1,0.2,0.3,0.3,0.3,0.5
		c0,0.3-0.3,0.7-0.7,0.7c-0.4,0-0.7-0.2-1-0.7l-0.6,0.7c0.7,0.7,1.2,1,1.8,1c0.9,0,1.6-0.7,1.6-1.7C113.3,9.4,113,9.1,111.9,8.6z"/>
	<path class="st24" d="M113.6,9.3c0,1.5,1,2.7,2.4,2.7c0.4,0,0.7-0.2,1-0.3v-1.2c-0.3,0.3-0.7,0.5-1,0.5c-0.9,0-1.5-0.7-1.5-1.8
		c0-1,0.6-1.8,1.5-1.8c0.4,0,0.7,0.2,1,0.5v-1c-0.4-0.2-0.7-0.3-1-0.3C114.6,6.6,113.6,7.8,113.6,9.3z"/>
	<polygon class="st24" points="124.3,10.1 123.1,6.8 122.1,6.8 124,11.9 124.5,11.9 126.6,6.8 125.5,6.8 	"/>
	<polygon class="st24" points="126.9,11.8 129.4,11.8 129.4,10.9 127.8,10.9 127.8,9.6 129.4,9.6 129.4,8.8 127.8,8.8 127.8,7.6
		129.4,7.6 129.4,6.8 126.9,6.8 	"/>
	<path class="st24" d="M133,8.3c0-1-0.6-1.5-1.6-1.5H130v5.1h0.9V9.8h0.1l1.2,2h1l-1.5-2.2C132.7,9.4,133,8.9,133,8.3z M131.2,9.1
		h-0.3V7.4h0.3c0.6,0,0.9,0.3,0.9,0.8C132.1,8.8,131.8,9.1,131.2,9.1z"/>
	<path class="st25" d="M133.6,7.1c0-0.2,0-0.2-0.1-0.2h-0.1v0.5h0.1V7.3l0.1,0.2h0.1L133.6,7.1C133.6,7.3,133.6,7.1,133.6,7.1z
		 M133.5,7.1L133.5,7.1L133.5,7.1L133.5,7.1C133.5,7.1,133.6,7.1,133.5,7.1C133.6,7.1,133.5,7.1,133.5,7.1z"/>
	<path class="st25" d="M133.5,6.8c-0.1,0-0.3,0.2-0.3,0.3c0,0.2,0.1,0.3,0.3,0.3s0.3-0.2,0.3-0.3C133.9,6.9,133.8,6.8,133.5,6.8z
		 M133.5,7.4c-0.1,0-0.3-0.2-0.3-0.3s0.1-0.3,0.3-0.3s0.3,0.2,0.3,0.3C133.8,7.3,133.6,7.4,133.5,7.4z"/>
	<path class="st25" d="M112.7,13.1l1.2,1.3v-1.2h0.1V15l-1.2-1.5v1.3h-0.1V13.1z"/>
	<path class="st25" d="M112.7,13.1v1.8h0.1c0,0,0-1.2,0-1.3l1.2,1.3v-1.7h-0.1c0,0,0,1.2,0,1.3C113.9,14.4,112.7,13.1,112.7,13.1
		L112.7,13.1z M112.7,13.2l1.2,1.3v-1.3h0.1v1.7l-1.2-1.3v1.3h-0.1V13.2z"/>
	<path class="st25" d="M114.9,13.2h0.7v0.2H115v0.5h0.6v0.2H115v0.7h0.6V15h-0.7V13.2z"/>
	<path class="st25" d="M115.6,13.2h-0.7v1.7h0.9v-0.2h-0.6V14h0.6v-0.2h-0.6v-0.5h0.6L115.6,13.2L115.6,13.2z M115.6,13.2
		C115.6,13.2,115.6,13.4,115.6,13.2c0,0.2-0.6,0.2-0.6,0.2v0.5h0.6v0.2H115v0.7h0.6V15h-0.7v-1.7L115.6,13.2L115.6,13.2z"/>
	<path class="st25" d="M116.8,14.9L116.8,14.9l-0.1-1.5h-0.3v-0.2h0.9v0.2h-0.4L116.8,14.9L116.8,14.9z"/>
	<path class="st25" d="M117.3,13.2h-0.9v0.2h0.3v1.5h0.1v-1.5h0.4L117.3,13.2L117.3,13.2z M117.3,13.2
		C117.3,13.2,117.3,13.4,117.3,13.2c0,0.2-0.4,0.2-0.4,0.2v1.5h-0.1v-1.5h-0.3v-0.2C116.4,13.2,117.1,13.2,117.3,13.2z"/>
	<path class="st25" d="M118.3,14.4l0.4-1.3l0.4,1.3l0.4-1.3h0.1l-0.6,1.8l-0.3-1.3l-0.4,1.3l-0.6-1.8h0.1L118.3,14.4z"/>
	<path class="st25" d="M118.9,13.1c0,0-0.4,1.2-0.4,1.3l-0.4-1.2H118l0.6,1.8l0.4-1.3l0.4,1.3l0.6-1.8h-0.1c0,0-0.3,1.2-0.4,1.2
		C119.4,14.4,118.9,13.1,118.9,13.1L118.9,13.1z M118.3,14.4l0.4-1.3l0.4,1.3l0.4-1.3h0.1l-0.6,1.7l-0.4-1.3l-0.4,1.3l-0.6-1.7h0.1
		C118,13.2,118.3,14.6,118.3,14.4L118.3,14.4z"/>
	<path class="st25" d="M122.2,14.1c0,0.5-0.3,0.8-0.7,0.8c-0.4,0-0.7-0.3-0.7-0.8s0.3-0.8,0.7-0.8C121.8,13.2,122.2,13.6,122.2,14.1
		z M120.7,14.1c0,0.3,0.3,0.7,0.6,0.7c0.3,0,0.6-0.3,0.6-0.7c0-0.3-0.3-0.7-0.6-0.7C121,13.4,120.7,13.7,120.7,14.1z"/>
	<path class="st25" d="M120.6,14.1c0,0.5,0.3,0.8,0.7,0.8s0.7-0.3,0.7-0.8s-0.3-0.8-0.7-0.8C120.9,13.1,120.6,13.6,120.6,14.1z
		 M120.6,14.1c0-0.5,0.3-0.8,0.7-0.8s0.7,0.3,0.7,0.8s-0.3,0.8-0.7,0.8C120.9,14.9,120.6,14.6,120.6,14.1z"/>
	<path class="st25" d="M120.7,14.1c0,0.3,0.3,0.7,0.6,0.7c0.3,0,0.6-0.3,0.6-0.7c0-0.3-0.3-0.7-0.6-0.7
		C121,13.4,120.7,13.6,120.7,14.1z M120.7,14.1c0-0.3,0.3-0.7,0.6-0.7c0.3,0,0.6,0.3,0.6,0.7c0,0.3-0.3,0.7-0.6,0.7
		C121,14.7,120.7,14.4,120.7,14.1z"/>
	<path class="st25" d="M123.1,14.9L123.1,14.9l-0.1-1.7h0.1c0.3,0,0.6,0.2,0.6,0.5s-0.1,0.5-0.4,0.5l0.4,0.8h-0.1l-0.4-0.8l0,0
		L123.1,14.9L123.1,14.9z M123.1,14.1L123.1,14.1c0.3,0,0.4,0,0.4-0.3s-0.1-0.3-0.4-0.3l0,0V14.1z"/>
	<path class="st25" d="M123,13.2L123,13.2v1.7h0.1c0,0,0-0.7,0-0.8l0,0l0,0l0.4,0.7h0.1l0,0c0,0-0.4-0.7-0.4-0.8
		c0.3,0,0.3-0.2,0.3-0.5s-0.1-0.5-0.6-0.5l0,0L123,13.2L123,13.2z M123.1,13.2c0.3,0,0.6,0.2,0.6,0.5s-0.1,0.5-0.3,0.5l0,0
		c0,0,0.4,0.7,0.4,0.8h-0.1l0,0l-0.4-0.7l0,0l0,0c0,0,0,0.7,0,0.8h-0.1v-1.7C123,13.2,123.1,13.2,123.1,13.2z"/>
	<path class="st25" d="M123.1,13.4L123.1,13.4v0.7l0,0c0.1,0,0.4,0,0.4-0.3C123.6,13.4,123.3,13.4,123.1,13.4L123.1,13.4z
		 M123.1,13.4c0.1,0,0.4,0,0.4,0.3s-0.1,0.3-0.3,0.3l0,0C123.1,13.9,123.1,13.4,123.1,13.4L123.1,13.4z"/>
	<path class="st25" d="M125.4,13.2L125.4,13.2l-0.6,0.8l0.7,0.8h-0.3l-0.6-0.8l0,0v0.7h-0.1V13h0.1v0.7L125.4,13.2z"/>
	<path class="st25" d="M125.5,13.2h-0.3l-0.6,0.7v-0.7h-0.1v1.7h0.1c0,0,0-0.7,0-0.8l0,0l0.6,0.8h0.3l0,0c0,0-0.7-0.8-0.7-1
		C124.9,13.9,125.7,13.2,125.5,13.2L125.5,13.2z M125.5,13.2l-0.7,0.8l0.7,0.8h-0.1l0,0l-0.6-0.8l0,0l0,0v0.7h-0.1V13h0.1v0.8
		c0,0,0.6-0.7,0.7-0.8C125.4,13.2,125.5,13.2,125.5,13.2z"/>
</g>
</svg>
